<mxfile host="drawio-plugin" modified="2023-05-02T14:20:54.422Z" agent="5.0 (Windows NT 6.2; Win64; x64) AppleWebKit/537.36 (KHTML, like Gecko) Chrome/97.0.4692.45 Safari/537.36" etag="uNZdgpFFnWtVTQdFaUKX" version="15.5.4" type="embed" pages="2"><diagram id="cE4bYjcfEJapTTrfAqfY" name="higher-level"><mxGraphModel dx="1170" dy="880" grid="1" gridSize="10" guides="1" tooltips="1" connect="1" arrows="1" fold="1" page="1" pageScale="1" pageWidth="850" pageHeight="1100" math="0" shadow="0"><root><mxCell id="0"/><mxCell id="1" parent="0"/><mxCell id="2" value="Database(mongodb)" style="shape=cylinder3;whiteSpace=wrap;html=1;boundedLbl=1;backgroundOutline=1;size=15;" parent="1" vertex="1"><mxGeometry x="620" y="245" width="150" height="170" as="geometry"/></mxCell><mxCell id="6" style="edgeStyle=orthogonalEdgeStyle;rounded=0;orthogonalLoop=1;jettySize=auto;html=1;entryX=0.5;entryY=0;entryDx=0;entryDy=0;" parent="1" source="3" target="4" edge="1"><mxGeometry relative="1" as="geometry"/></mxCell><mxCell id="3" value="getMovies(tags)" style="ellipse;whiteSpace=wrap;html=1;" parent="1" vertex="1"><mxGeometry x="285" y="80" width="120" height="80" as="geometry"/></mxCell><mxCell id="7" style="edgeStyle=orthogonalEdgeStyle;rounded=0;orthogonalLoop=1;jettySize=auto;html=1;entryX=0.5;entryY=0;entryDx=0;entryDy=0;" parent="1" source="4" target="5" edge="1"><mxGeometry relative="1" as="geometry"/></mxCell><mxCell id="11" style="edgeStyle=orthogonalEdgeStyle;rounded=0;orthogonalLoop=1;jettySize=auto;html=1;entryX=0.5;entryY=0;entryDx=0;entryDy=0;" parent="1" source="4" target="8" edge="1"><mxGeometry relative="1" as="geometry"/></mxCell><mxCell id="4" value="parse tags(according to tags and return list)" style="rounded=1;whiteSpace=wrap;html=1;" parent="1" vertex="1"><mxGeometry x="285" y="220" width="120" height="60" as="geometry"/></mxCell><mxCell id="9" style="edgeStyle=orthogonalEdgeStyle;rounded=0;orthogonalLoop=1;jettySize=auto;html=1;entryX=0.5;entryY=1;entryDx=0;entryDy=0;entryPerimeter=0;" parent="1" source="5" target="2" edge="1"><mxGeometry relative="1" as="geometry"/></mxCell><mxCell id="5" value="Get all docs accroding to initial tag" style="whiteSpace=wrap;html=1;aspect=fixed;" parent="1" vertex="1"><mxGeometry x="305" y="440" width="80" height="80" as="geometry"/></mxCell><mxCell id="8" value="svc layer for processing" style="rounded=1;whiteSpace=wrap;html=1;" parent="1" vertex="1"><mxGeometry x="285" y="330" width="120" height="60" as="geometry"/></mxCell><mxCell id="12" style="edgeStyle=orthogonalEdgeStyle;rounded=0;orthogonalLoop=1;jettySize=auto;html=1;entryX=0;entryY=0.5;entryDx=0;entryDy=0;" parent="1" source="10" target="8" edge="1"><mxGeometry relative="1" as="geometry"/></mxCell><mxCell id="10" value="imbd api" style="ellipse;whiteSpace=wrap;html=1;" parent="1" vertex="1"><mxGeometry x="50" y="310" width="120" height="75" as="geometry"/></mxCell></root></mxGraphModel></diagram><diagram id="TJzJCbLIafFDvKgN7NdM" name="lower-level"><mxGraphModel dx="702" dy="528" grid="1" gridSize="10" guides="1" tooltips="1" connect="1" arrows="1" fold="1" page="1" pageScale="1" pageWidth="850" pageHeight="1100" math="0" shadow="0"><root><mxCell id="BsnbTQZv-g28gNvq_PIS-0"/><mxCell id="BsnbTQZv-g28gNvq_PIS-1" parent="BsnbTQZv-g28gNvq_PIS-0"/><mxCell id="WKI6F3VpiymvgavwAjEC-15" style="edgeStyle=orthogonalEdgeStyle;rounded=0;orthogonalLoop=1;jettySize=auto;html=1;entryX=0.5;entryY=0;entryDx=0;entryDy=0;" parent="BsnbTQZv-g28gNvq_PIS-1" source="WKI6F3VpiymvgavwAjEC-0" target="WKI6F3VpiymvgavwAjEC-4" edge="1"><mxGeometry relative="1" as="geometry"/></mxCell><mxCell id="WKI6F3VpiymvgavwAjEC-0" value="Mood Changer" style="rounded=1;whiteSpace=wrap;html=1;" parent="BsnbTQZv-g28gNvq_PIS-1" vertex="1"><mxGeometry x="40" y="160" width="120" height="60" as="geometry"/></mxCell><mxCell id="WKI6F3VpiymvgavwAjEC-16" style="edgeStyle=orthogonalEdgeStyle;rounded=0;orthogonalLoop=1;jettySize=auto;html=1;entryX=0.5;entryY=0;entryDx=0;entryDy=0;" parent="BsnbTQZv-g28gNvq_PIS-1" source="WKI6F3VpiymvgavwAjEC-1" target="WKI6F3VpiymvgavwAjEC-8" edge="1"><mxGeometry relative="1" as="geometry"/></mxCell><mxCell id="WKI6F3VpiymvgavwAjEC-1" value="Mood Booster" style="rounded=1;whiteSpace=wrap;html=1;" parent="BsnbTQZv-g28gNvq_PIS-1" vertex="1"><mxGeometry x="305" y="160" width="120" height="60" as="geometry"/></mxCell><mxCell id="WKI6F3VpiymvgavwAjEC-17" style="edgeStyle=orthogonalEdgeStyle;rounded=0;orthogonalLoop=1;jettySize=auto;html=1;entryX=0.5;entryY=0;entryDx=0;entryDy=0;" parent="BsnbTQZv-g28gNvq_PIS-1" source="WKI6F3VpiymvgavwAjEC-2" target="WKI6F3VpiymvgavwAjEC-6" edge="1"><mxGeometry relative="1" as="geometry"/></mxCell><mxCell id="WKI6F3VpiymvgavwAjEC-2" value="You may also watch" style="rounded=1;whiteSpace=wrap;html=1;" parent="BsnbTQZv-g28gNvq_PIS-1" vertex="1"><mxGeometry x="570" y="160" width="120" height="60" as="geometry"/></mxCell><mxCell id="WKI6F3VpiymvgavwAjEC-12" style="edgeStyle=orthogonalEdgeStyle;rounded=0;orthogonalLoop=1;jettySize=auto;html=1;entryX=0.5;entryY=0;entryDx=0;entryDy=0;" parent="BsnbTQZv-g28gNvq_PIS-1" source="WKI6F3VpiymvgavwAjEC-3" target="WKI6F3VpiymvgavwAjEC-0" edge="1"><mxGeometry relative="1" as="geometry"/></mxCell><mxCell id="WKI6F3VpiymvgavwAjEC-13" style="edgeStyle=orthogonalEdgeStyle;rounded=0;orthogonalLoop=1;jettySize=auto;html=1;entryX=0.5;entryY=0;entryDx=0;entryDy=0;" parent="BsnbTQZv-g28gNvq_PIS-1" source="WKI6F3VpiymvgavwAjEC-3" target="WKI6F3VpiymvgavwAjEC-1" edge="1"><mxGeometry relative="1" as="geometry"/></mxCell><mxCell id="WKI6F3VpiymvgavwAjEC-14" style="edgeStyle=orthogonalEdgeStyle;rounded=0;orthogonalLoop=1;jettySize=auto;html=1;entryX=0.5;entryY=0;entryDx=0;entryDy=0;" parent="BsnbTQZv-g28gNvq_PIS-1" source="WKI6F3VpiymvgavwAjEC-3" target="WKI6F3VpiymvgavwAjEC-2" edge="1"><mxGeometry relative="1" as="geometry"/></mxCell><mxCell id="WKI6F3VpiymvgavwAjEC-3" value="frontend" style="ellipse;whiteSpace=wrap;html=1;" parent="BsnbTQZv-g28gNvq_PIS-1" vertex="1"><mxGeometry x="305" y="10" width="120" height="80" as="geometry"/></mxCell><mxCell id="WKI6F3VpiymvgavwAjEC-23" style="edgeStyle=orthogonalEdgeStyle;rounded=0;orthogonalLoop=1;jettySize=auto;html=1;entryX=0.417;entryY=0.167;entryDx=0;entryDy=0;entryPerimeter=0;" parent="BsnbTQZv-g28gNvq_PIS-1" source="WKI6F3VpiymvgavwAjEC-4" target="WKI6F3VpiymvgavwAjEC-9" edge="1"><mxGeometry relative="1" as="geometry"/></mxCell><mxCell id="WKI6F3VpiymvgavwAjEC-24" style="edgeStyle=orthogonalEdgeStyle;rounded=0;orthogonalLoop=1;jettySize=auto;html=1;entryX=0.42;entryY=-0.06;entryDx=0;entryDy=0;entryPerimeter=0;" parent="BsnbTQZv-g28gNvq_PIS-1" source="WKI6F3VpiymvgavwAjEC-4" target="WKI6F3VpiymvgavwAjEC-9" edge="1"><mxGeometry relative="1" as="geometry"/></mxCell><mxCell id="WKI6F3VpiymvgavwAjEC-4" value="Pass tags :&lt;br&gt;Mood, genre,actor, language and many more" style="ellipse;whiteSpace=wrap;html=1;" parent="BsnbTQZv-g28gNvq_PIS-1" vertex="1"><mxGeometry x="40" y="290" width="120" height="80" as="geometry"/></mxCell><mxCell id="WKI6F3VpiymvgavwAjEC-19" style="edgeStyle=orthogonalEdgeStyle;rounded=0;orthogonalLoop=1;jettySize=auto;html=1;entryX=1;entryY=0.5;entryDx=0;entryDy=0;" parent="BsnbTQZv-g28gNvq_PIS-1" source="WKI6F3VpiymvgavwAjEC-5" target="WKI6F3VpiymvgavwAjEC-6" edge="1"><mxGeometry relative="1" as="geometry"/></mxCell><mxCell id="WKI6F3VpiymvgavwAjEC-5" value="user_rec&lt;br&gt;collection" style="shape=cylinder3;whiteSpace=wrap;html=1;boundedLbl=1;backgroundOutline=1;size=15;" parent="BsnbTQZv-g28gNvq_PIS-1" vertex="1"><mxGeometry x="750" y="330" width="120" height="140" as="geometry"/></mxCell><mxCell id="WKI6F3VpiymvgavwAjEC-18" style="edgeStyle=orthogonalEdgeStyle;rounded=0;orthogonalLoop=1;jettySize=auto;html=1;entryX=0;entryY=0.5;entryDx=0;entryDy=0;entryPerimeter=0;" parent="BsnbTQZv-g28gNvq_PIS-1" source="WKI6F3VpiymvgavwAjEC-6" target="WKI6F3VpiymvgavwAjEC-5" edge="1"><mxGeometry relative="1" as="geometry"/></mxCell><mxCell id="WKI6F3VpiymvgavwAjEC-20" style="edgeStyle=orthogonalEdgeStyle;rounded=0;orthogonalLoop=1;jettySize=auto;html=1;entryX=0.5;entryY=0;entryDx=0;entryDy=0;" parent="BsnbTQZv-g28gNvq_PIS-1" source="WKI6F3VpiymvgavwAjEC-6" target="WKI6F3VpiymvgavwAjEC-11" edge="1"><mxGeometry relative="1" as="geometry"/></mxCell><mxCell id="WKI6F3VpiymvgavwAjEC-6" value="get previous_tags according to user_past searches" style="rounded=0;whiteSpace=wrap;html=1;" parent="BsnbTQZv-g28gNvq_PIS-1" vertex="1"><mxGeometry x="570" y="300" width="120" height="60" as="geometry"/></mxCell><mxCell id="WKI6F3VpiymvgavwAjEC-28" style="edgeStyle=orthogonalEdgeStyle;rounded=0;orthogonalLoop=1;jettySize=auto;html=1;entryX=0.5;entryY=1;entryDx=0;entryDy=0;" parent="BsnbTQZv-g28gNvq_PIS-1" source="WKI6F3VpiymvgavwAjEC-7" target="WKI6F3VpiymvgavwAjEC-10" edge="1"><mxGeometry relative="1" as="geometry"><Array as="points"><mxPoint x="365" y="780"/></Array></mxGeometry></mxCell><mxCell id="WKI6F3VpiymvgavwAjEC-31" style="edgeStyle=orthogonalEdgeStyle;rounded=0;orthogonalLoop=1;jettySize=auto;html=1;" parent="BsnbTQZv-g28gNvq_PIS-1" source="WKI6F3VpiymvgavwAjEC-7" edge="1"><mxGeometry relative="1" as="geometry"><mxPoint x="109.99999999999989" y="580" as="targetPoint"/></mxGeometry></mxCell><mxCell id="WKI6F3VpiymvgavwAjEC-7" value="movie_rec&lt;br&gt;collection" style="shape=cylinder3;whiteSpace=wrap;html=1;boundedLbl=1;backgroundOutline=1;size=15;" parent="BsnbTQZv-g28gNvq_PIS-1" vertex="1"><mxGeometry x="170" y="710" width="120" height="140" as="geometry"/></mxCell><mxCell id="WKI6F3VpiymvgavwAjEC-25" style="edgeStyle=orthogonalEdgeStyle;rounded=0;orthogonalLoop=1;jettySize=auto;html=1;entryX=0.5;entryY=0;entryDx=0;entryDy=0;" parent="BsnbTQZv-g28gNvq_PIS-1" source="WKI6F3VpiymvgavwAjEC-8" target="WKI6F3VpiymvgavwAjEC-10" edge="1"><mxGeometry relative="1" as="geometry"/></mxCell><mxCell id="WKI6F3VpiymvgavwAjEC-8" value="Pass tags :&lt;br&gt;Mood, genre,actor, language and many more" style="ellipse;whiteSpace=wrap;html=1;" parent="BsnbTQZv-g28gNvq_PIS-1" vertex="1"><mxGeometry x="305" y="290" width="120" height="80" as="geometry"/></mxCell><mxCell id="WKI6F3VpiymvgavwAjEC-26" style="edgeStyle=orthogonalEdgeStyle;rounded=0;orthogonalLoop=1;jettySize=auto;html=1;entryX=0;entryY=0.5;entryDx=0;entryDy=0;entryPerimeter=0;exitX=0.5;exitY=1;exitDx=0;exitDy=0;" parent="BsnbTQZv-g28gNvq_PIS-1" source="WKI6F3VpiymvgavwAjEC-9" target="WKI6F3VpiymvgavwAjEC-7" edge="1"><mxGeometry relative="1" as="geometry"/></mxCell><mxCell id="WKI6F3VpiymvgavwAjEC-9" value="mood_changer&lt;br&gt;algorithm" style="rounded=1;whiteSpace=wrap;html=1;" parent="BsnbTQZv-g28gNvq_PIS-1" vertex="1"><mxGeometry x="50" y="520" width="120" height="60" as="geometry"/></mxCell><mxCell id="WKI6F3VpiymvgavwAjEC-30" style="edgeStyle=orthogonalEdgeStyle;rounded=0;orthogonalLoop=1;jettySize=auto;html=1;entryX=1;entryY=0.5;entryDx=0;entryDy=0;entryPerimeter=0;exitX=0.5;exitY=1;exitDx=0;exitDy=0;" parent="BsnbTQZv-g28gNvq_PIS-1" source="WKI6F3VpiymvgavwAjEC-10" target="WKI6F3VpiymvgavwAjEC-7" edge="1"><mxGeometry relative="1" as="geometry"><Array as="points"><mxPoint x="365" y="780"/></Array></mxGeometry></mxCell><mxCell id="WKI6F3VpiymvgavwAjEC-10" value="mood_picker&lt;br&gt;algorithm" style="rounded=1;whiteSpace=wrap;html=1;" parent="BsnbTQZv-g28gNvq_PIS-1" vertex="1"><mxGeometry x="305" y="520" width="120" height="60" as="geometry"/></mxCell><mxCell id="WKI6F3VpiymvgavwAjEC-21" style="edgeStyle=orthogonalEdgeStyle;rounded=0;orthogonalLoop=1;jettySize=auto;html=1;entryX=0.75;entryY=0;entryDx=0;entryDy=0;" parent="BsnbTQZv-g28gNvq_PIS-1" source="WKI6F3VpiymvgavwAjEC-11" target="WKI6F3VpiymvgavwAjEC-9" edge="1"><mxGeometry relative="1" as="geometry"/></mxCell><mxCell id="WKI6F3VpiymvgavwAjEC-22" style="edgeStyle=orthogonalEdgeStyle;rounded=0;orthogonalLoop=1;jettySize=auto;html=1;exitX=0;exitY=0.75;exitDx=0;exitDy=0;entryX=0.75;entryY=0;entryDx=0;entryDy=0;" parent="BsnbTQZv-g28gNvq_PIS-1" source="WKI6F3VpiymvgavwAjEC-11" target="WKI6F3VpiymvgavwAjEC-10" edge="1"><mxGeometry relative="1" as="geometry"/></mxCell><mxCell id="WKI6F3VpiymvgavwAjEC-11" value="process_tags" style="rounded=0;whiteSpace=wrap;html=1;" parent="BsnbTQZv-g28gNvq_PIS-1" vertex="1"><mxGeometry x="570" y="420" width="120" height="60" as="geometry"/></mxCell></root></mxGraphModel></diagram></mxfile>